<?xml version="1.0" encoding="iso-8859-1"?>
<!-- Generator: Adobe Illustrator 19.0.0, SVG Export Plug-In . SVG Version: 6.00 Build 0)  -->
<svg version="1.1" id="Layer_1" xmlns="http://www.w3.org/2000/svg" xmlns:xlink="http://www.w3.org/1999/xlink" x="0px" y="0px"
	 viewBox="0 0 512 512" style="enable-background:new 0 0 512 512;" xml:space="preserve">
<circle style="fill:#ECF0F1;" cx="256" cy="256" r="245.551"/>
<path style="fill:#3EBD91;" d="M237.192,374.77c-5.349,0-10.697-2.041-14.777-6.121l-96.131-96.131l29.554-29.554l81.354,81.353
	L407.71,153.8l29.554,29.554L251.969,368.649C247.888,372.73,242.541,374.77,237.192,374.77z"/>
<g>
	<path style="fill:#231F20;" d="M437.019,74.981C388.668,26.628,324.38,0,256,0S123.332,26.628,74.981,74.981S0,187.62,0,256
		s26.628,132.668,74.981,181.019S187.62,512,256,512s132.668-26.628,181.019-74.981S512,324.38,512,256
		S485.372,123.332,437.019,74.981z M256,491.102C126.365,491.102,20.898,385.635,20.898,256S126.365,20.898,256,20.898
		S491.102,126.365,491.102,256S385.635,491.102,256,491.102z"/>
	<path style="fill:#231F20;" d="M467.336,220.99c-0.944-5.693-6.326-9.542-12.017-8.598c-5.693,0.944-9.542,6.325-8.598,12.017
		c1.716,10.348,2.586,20.977,2.586,31.591c0,106.589-86.717,193.306-193.306,193.306S62.694,362.589,62.694,256
		S149.411,62.694,256,62.694c49.151,0,96.024,18.54,131.987,52.204c4.213,3.942,10.825,3.725,14.769-0.488
		c3.943-4.213,3.725-10.825-0.487-14.769C362.42,62.34,310.474,41.796,256,41.796C137.887,41.796,41.796,137.887,41.796,256
		S137.887,470.204,256,470.204S470.204,374.113,470.204,256C470.204,244.244,469.24,232.465,467.336,220.99z"/>
	<path style="fill:#231F20;" d="M237.192,309.541l-73.965-73.965c-4.08-4.08-10.697-4.08-14.778,0l-29.554,29.554
		c-4.08,4.08-4.08,10.697,0,14.778l96.131,96.131c5.92,5.92,13.793,9.181,22.165,9.181c8.373,0,16.245-3.261,22.165-9.181
		l185.295-185.295c1.959-1.959,3.06-4.617,3.06-7.388c0-2.771-1.101-5.429-3.06-7.388l-29.554-29.554
		c-4.08-4.08-10.698-4.08-14.777,0L237.192,309.541z M407.71,168.577l14.777,14.777L244.58,361.26
		c-1.974,1.974-4.598,3.061-7.388,3.061c-2.791,0-5.415-1.087-7.388-3.061l-88.742-88.741l14.777-14.777l73.965,73.965
		c4.08,4.08,10.697,4.08,14.778,0L407.71,168.577z"/>
</g>
<g>
</g>
<g>
</g>
<g>
</g>
<g>
</g>
<g>
</g>
<g>
</g>
<g>
</g>
<g>
</g>
<g>
</g>
<g>
</g>
<g>
</g>
<g>
</g>
<g>
</g>
<g>
</g>
<g>
</g>
</svg>
