<svg width="24px" height="24px" viewBox="0 0 24 24" fill="none" xmlns="http://www.w3.org/2000/svg">
<path fill-rule="evenodd" clip-rule="evenodd" d="M14.0622 5.62003C11.6968 5.37151 9.313 5.35302 6.94412 5.56483L5.36233 5.70626C4.05519 5.82313 2.99904 6.82173 2.8092 8.12029C2.43307 10.693 2.43307 13.3068 2.8092 15.8795C2.99904 17.178 4.05519 18.1766 5.36233 18.2935L6.94412 18.4349C9.313 18.6467 11.6968 18.6283 14.0622 18.3797L14.6699 18.3159C15.914 18.1852 16.9206 17.2591 17.1629 16.0435L20.2098 17.6622C20.432 17.7802 20.6985 17.779 20.9196 17.659C21.1407 17.5389 21.2868 17.316 21.3088 17.0654L21.3337 16.7815C21.6126 13.5999 21.6126 10.3999 21.3337 7.21823L21.3088 6.93438C21.2868 6.68377 21.1407 6.46086 20.9196 6.3408C20.6985 6.22074 20.432 6.21952 20.2098 6.33756L17.1629 7.95632C16.9206 6.74067 15.914 5.8146 14.6699 5.68388L14.0622 5.62003ZM7.0777 7.05887C9.34996 6.8557 11.6366 6.87343 13.9054 7.11182L14.5131 7.17567C15.1247 7.23993 15.6149 7.71067 15.7039 8.31916C16.0607 10.76 16.0607 13.2398 15.7039 15.6806C15.6149 16.2891 15.1247 16.7598 14.5131 16.8241L13.9054 16.8879C11.6366 17.1263 9.34997 17.1441 7.0777 16.9409L5.49592 16.7995C4.88027 16.7444 4.38283 16.2741 4.29342 15.6625C3.93833 13.2337 3.93833 10.7661 4.29342 8.33728C4.38283 7.72567 4.88027 7.25534 5.49592 7.2003L7.0777 7.05887ZM17.3599 9.55021C17.5087 11.1799 17.5087 12.8198 17.3599 14.4496L19.9069 15.8027C20.0882 13.2707 20.0882 10.729 19.9069 8.19702L17.3599 9.55021Z" fill="black"/>
</svg>
