<svg xmlns="http://www.w3.org/2000/svg" xmlns:xlink="http://www.w3.org/1999/xlink" width="324.89" height="286.596" viewBox="0 0 324.89 286.596">
  <defs>
    <linearGradient id="linear-gradient" x1="0.025" y1="0.457" x2="0.908" y2="0.457" gradientUnits="objectBoundingBox">
      <stop offset="0" stop-color="#fbff00"/>
      <stop offset="1" stop-color="#a0d10a"/>
    </linearGradient>
    <clipPath id="clip-path">
      <path id="Path_285" data-name="Path 285" d="M158.4,196.1c-16.4,10.3-35,17.6-48.9,31.1s-21.9,36.2-11.3,52.4c5.8,8.9,16.1,14.3,20.6,23.9,4.3,9.2,2.2,20.2-2.4,29.2s-11.4,16.7-17.1,25-10.6,17.9-10.2,28,7.4,20.5,17.4,21.7c9.6,1.2,18-5.8,26-11.4a110.8,110.8,0,0,1,89.1-16.5c18.6,4.6,35.5,14,53.4,20.8s37.9,10.9,56,4.5c14.1-4.9,25.4-15.7,34.6-27.3,8.2-10.3,15.5-22.5,15.1-35.7-.5-15.3-11.3-28.3-22.9-38.3s-24.9-18.6-33.5-31.2c-12.6-18.4-13.4-42.1-19.5-63.6-7-24.4-22.3-47.3-44.8-59.2-17.3-9.2-48.9-13.5-64.9,1.3-5.8,5.3-6.5,14.1-10.5,20.7C178.2,181.7,168.5,189.7,158.4,196.1Z"/>
    </clipPath>
    <clipPath id="clip-path-2">
      <path id="Path_286" data-name="Path 286" d="M158.4,196.1c-16.4,10.3-35,17.6-48.9,31.1s-21.9,36.2-11.3,52.4c5.8,8.9,16.1,14.3,20.6,23.9,4.3,9.2,2.2,20.2-2.4,29.2s-11.4,16.7-17.1,25-10.6,17.9-10.2,28,7.4,20.5,17.4,21.7c9.6,1.2,18-5.8,26-11.4a110.8,110.8,0,0,1,89.1-16.5c18.6,4.6,35.5,14,53.4,20.8s37.9,10.9,56,4.5c14.1-4.9,25.4-15.7,34.6-27.3,8.2-10.3,15.5-22.5,15.1-35.7-.5-15.3-11.3-28.3-22.9-38.3s-24.9-18.6-33.5-31.2c-12.6-18.4-13.4-42.1-19.5-63.6-7-24.4-22.3-47.3-44.8-59.2-17.3-9.2-48.9-13.5-64.9,1.3-5.8,5.3-6.5,14.1-10.5,20.7C178.2,181.7,168.5,189.7,158.4,196.1Z" transform="translate(-65.1 -375.4)"/>
    </clipPath>
  </defs>
  <g id="OBJECTS" transform="translate(-79.7 -121.4)">
    <g id="Group_53" data-name="Group 53">
      <path id="Path_253" data-name="Path 253" d="M158.4,196.1c-16.4,10.3-35,17.6-48.9,31.1s-21.9,36.2-11.3,52.4c5.8,8.9,16.1,14.3,20.6,23.9,4.3,9.2,2.2,20.2-2.4,29.2s-11.4,16.7-17.1,25-10.6,17.9-10.2,28,7.4,20.5,17.4,21.7c9.6,1.2,18-5.8,26-11.4a110.8,110.8,0,0,1,89.1-16.5c18.6,4.6,35.5,14,53.4,20.8s37.9,10.9,56,4.5c14.1-4.9,25.4-15.7,34.6-27.3,8.2-10.3,15.5-22.5,15.1-35.7-.5-15.3-11.3-28.3-22.9-38.3s-24.9-18.6-33.5-31.2c-12.6-18.4-13.4-42.1-19.5-63.6-7-24.4-22.3-47.3-44.8-59.2-17.3-9.2-48.9-13.5-64.9,1.3-5.8,5.3-6.5,14.1-10.5,20.7C178.2,181.7,168.5,189.7,158.4,196.1Z" fill="#ffedff"/>
      <g id="Group_44" data-name="Group 44">
        <g id="Group_41" data-name="Group 41">
          <path id="Path_254" data-name="Path 254" d="M122.8,340.9a.908.908,0,0,1-.7-.3c-.1-.1-.2-.2-.2-.3s-.1-.3-.1-.4a.6.6,0,0,1,.1-.4c.1-.1.1-.2.2-.3s.2-.2.3-.2a1.09,1.09,0,0,1,1.1.2c.1.1.2.2.2.3s.1.3.1.4a.6.6,0,0,1-.1.4c0,.1-.1.2-.2.3s-.2.2-.3.2C123,340.8,122.9,340.9,122.8,340.9Z" fill="#f5b1f5"/>
        </g>
        <g id="Group_42" data-name="Group 42">
          <path id="Path_255" data-name="Path 255" d="M118.6,339.5h0a1.04,1.04,0,0,1-.6-1.3h0a1.04,1.04,0,0,1,1.3-.6h0a1.04,1.04,0,0,1,.6,1.3h0a.961.961,0,0,1-.9.6h-.4Zm-3.7-1.7h0a.992.992,0,0,1-.5-1.3h0a.992.992,0,0,1,1.3-.5h0a.992.992,0,0,1,.5,1.3h0a.961.961,0,0,1-.9.6h0A.6.6,0,0,1,114.9,337.8Zm-3.6-1.9a1.107,1.107,0,0,1-.4-1.4h0a1.107,1.107,0,0,1,1.4-.4h0a1.107,1.107,0,0,1,.4,1.4h0a1.05,1.05,0,0,1-.9.5h0A.9.9,0,0,1,111.3,335.9Zm-3.4-2.2h0a1.076,1.076,0,0,1-.3-1.4h0a.984.984,0,0,1,1.4-.3h0a.984.984,0,0,1,.3,1.4h0a.91.91,0,0,1-.8.4h0A.56.56,0,0,1,107.9,333.7Zm212.2-.3a1.058,1.058,0,0,1,.2-1.4h0a1.075,1.075,0,0,1,1.4.2h0a1.058,1.058,0,0,1-.2,1.4h0a1.421,1.421,0,0,1-.6.2h0A.91.91,0,0,1,320.1,333.4Zm-215.5-2.1a.966.966,0,0,1-.1-1.4h0a1.075,1.075,0,0,1,1.4-.2h0a.966.966,0,0,1,.1,1.4h0a1.234,1.234,0,0,1-.8.4h0A1.421,1.421,0,0,1,104.6,331.3Zm218.8-.2a.978.978,0,0,1,.2-1.4h0a.978.978,0,0,1,1.4.2h0a.978.978,0,0,1-.2,1.4h0a1.421,1.421,0,0,1-.6.2h0A1.235,1.235,0,0,1,323.4,331.1Zm3.1-2.5a1.063,1.063,0,0,1,.1-1.4h0a1.063,1.063,0,0,1,1.4.1h0a.966.966,0,0,1-.1,1.4h0a.735.735,0,0,1-.6.2h0A.67.67,0,0,1,326.5,328.6Zm-225,0h0a.967.967,0,0,1,0-1.4h0a.967.967,0,0,1,1.4,0h0a1.071,1.071,0,0,1,.1,1.4h0a1.08,1.08,0,0,1-.7.3h0A1.136,1.136,0,0,1,101.5,328.6Zm228.1-2.5a.972.972,0,0,1,.1-1.4h0a.972.972,0,0,1,1.4.1h0a.966.966,0,0,1-.1,1.4h0a.908.908,0,0,1-.7.3h0A2.507,2.507,0,0,1,329.6,326.1Zm-230.9-.4a.9.9,0,0,1,.1-1.4h0a.967.967,0,0,1,1.4,0h0a.967.967,0,0,1,0,1.4h0a.908.908,0,0,1-.7.3h0A.984.984,0,0,1,98.7,325.7Zm233.9-2.3a.967.967,0,0,1,0-1.4h0a.967.967,0,0,1,1.4,0h0a.9.9,0,0,1-.1,1.4h0a.908.908,0,0,1-.7.3h0A.864.864,0,0,1,332.6,323.4ZM96,322.6a.978.978,0,0,1,.2-1.4h0a.978.978,0,0,1,1.4.2h0a.978.978,0,0,1-.2,1.4h0a.735.735,0,0,1-.6.2h0A.91.91,0,0,1,96,322.6Zm239.5-2a.967.967,0,0,1,0-1.4h0a.967.967,0,0,1,1.4,0h0a.967.967,0,0,1,0,1.4h0a.908.908,0,0,1-.7.3h0A.908.908,0,0,1,335.5,320.6ZM93.6,319.3a.984.984,0,0,1,.3-1.4h0a.984.984,0,0,1,1.4.3h0a.984.984,0,0,1-.3,1.4h0a1.421,1.421,0,0,1-.6.2h0A1.02,1.02,0,0,1,93.6,319.3Zm244.7-1.5a.967.967,0,0,1,0-1.4h0a1.071,1.071,0,0,1,1.4-.1h0a1.071,1.071,0,0,1,.1,1.4h0a1.08,1.08,0,0,1-.7.3h0A1.549,1.549,0,0,1,338.3,317.8ZM91.4,315.9a1.012,1.012,0,0,1,.4-1.4h0a1.012,1.012,0,0,1,1.4.4h0a1.012,1.012,0,0,1-.4,1.4h0a.9.9,0,0,1-.5.1h0A1.05,1.05,0,0,1,91.4,315.9ZM341,314.8a.972.972,0,0,1-.1-1.4h0a.972.972,0,0,1,1.4-.1h0a.972.972,0,0,1,.1,1.4h0a1.135,1.135,0,0,1-.8.3h0C341.4,315.1,341.2,315,341,314.8ZM89.5,312.3A.917.917,0,0,1,90,311h0a.917.917,0,0,1,1.3.5h0a.917.917,0,0,1-.5,1.3h0a.6.6,0,0,1-.4.1h0A.961.961,0,0,1,89.5,312.3Zm254.1-.5a.966.966,0,0,1-.1-1.4h0a.966.966,0,0,1,1.4-.1h0a1.075,1.075,0,0,1,.2,1.4h0a.91.91,0,0,1-.8.4h0A2.388,2.388,0,0,1,343.6,311.8ZM87.8,308.6h0a.992.992,0,0,1,.5-1.3h0a.992.992,0,0,1,1.3.5h0a.961.961,0,0,1-.6,1.3h0c-.1,0-.3.1-.4.1h0A1.072,1.072,0,0,1,87.8,308.6Zm258.3,0a1.075,1.075,0,0,1-.2-1.4h0a1.075,1.075,0,0,1,1.4-.2h0a1.075,1.075,0,0,1,.2,1.4h0a.91.91,0,0,1-.8.4h0C346.4,308.8,346.2,308.8,346.1,308.6Zm2.3-3.2a.9.9,0,0,1-.2-1.4h0a.9.9,0,0,1,1.4-.2h0a.9.9,0,0,1,.2,1.4h0a.91.91,0,0,1-.8.4h0A1.421,1.421,0,0,1,348.4,305.4Zm-261.9-.7h0a1.04,1.04,0,0,1,.6-1.3h0a1.015,1.015,0,0,1,1.3.7h0a1.04,1.04,0,0,1-.6,1.3h-.3A.9.9,0,0,1,86.5,304.7Zm264.2-2.6a.984.984,0,0,1-.3-1.4h0a.984.984,0,0,1,1.4-.3h0a.984.984,0,0,1,.3,1.4h0a1.02,1.02,0,0,1-.8.5h0A1.422,1.422,0,0,1,350.7,302.1ZM85.4,300.8h0a1.012,1.012,0,0,1,.8-1.2h0a1.012,1.012,0,0,1,1.2.8h0a1.012,1.012,0,0,1-.8,1.2h-.2A.974.974,0,0,1,85.4,300.8Zm267.5-2a.984.984,0,0,1-.3-1.4h0a.984.984,0,0,1,1.4-.3h0a.984.984,0,0,1,.3,1.4h0a1.05,1.05,0,0,1-.9.5h0C353.2,298.9,353.1,298.9,352.9,298.8Zm-268.2-2a.937.937,0,0,1,.8-1.1h0a.937.937,0,0,1,1.1.8h0a.993.993,0,0,1-.9,1.1h-.1A.809.809,0,0,1,84.7,296.8Zm270.2-1.5a1.107,1.107,0,0,1-.4-1.4h0a1.107,1.107,0,0,1,1.4-.4h0a1.107,1.107,0,0,1,.4,1.4h0a1.05,1.05,0,0,1-.9.5h0C355.3,295.5,355.1,295.4,354.9,295.3ZM84.3,292.7a1,1,0,0,1,1-1h0a1,1,0,0,1,1,1h0a1,1,0,0,1-1,1h0A1,1,0,0,1,84.3,292.7Zm272.6-.9a.922.922,0,0,1-.4-1.3h0a.922.922,0,0,1,1.3-.4h0a1.012,1.012,0,0,1,.4,1.4h0a1.05,1.05,0,0,1-.9.5h0A.758.758,0,0,1,356.9,291.8ZM85.3,289.7a1.075,1.075,0,0,1-1-1h0a1.075,1.075,0,0,1,1-1h0a1,1,0,0,1,1,1h0a1,1,0,0,1-1,1Zm273.4-1.4a.992.992,0,0,1-.5-1.3h0a.992.992,0,0,1,1.3-.5h0a.992.992,0,0,1,.5,1.3h0a.961.961,0,0,1-.9.6h0C359,288.4,358.8,288.3,358.7,288.3ZM85.5,285.7a1.172,1.172,0,0,1-.9-1.1h0a1.172,1.172,0,0,1,1.1-.9h0a.991.991,0,0,1,.8,1.1h0a1.063,1.063,0,0,1-1,.9Zm274.9-1a.992.992,0,0,1-.5-1.3h0a.992.992,0,0,1,1.3-.5h0a.992.992,0,0,1,.5,1.3h0a.961.961,0,0,1-.9.6h0A.6.6,0,0,0,360.4,284.7Zm-274.2-3a.949.949,0,0,1-.7-1.2h0a.949.949,0,0,1,1.2-.7h0a.949.949,0,0,1,.7,1.2h0a.974.974,0,0,1-1,.8h0A.31.31,0,0,1,86.2,281.7ZM362,281a1.04,1.04,0,0,1-.6-1.3h0a1.04,1.04,0,0,1,1.3-.6h0a1.04,1.04,0,0,1,.6,1.3h0a.961.961,0,0,1-.9.6H362ZM87.3,277.9a1.04,1.04,0,0,1-.6-1.3h0A1.04,1.04,0,0,1,88,276h0a1.04,1.04,0,0,1,.6,1.3h0a.875.875,0,0,1-.9.6h-.4Zm276.1-.7a1.04,1.04,0,0,1-.6-1.3h0a1.04,1.04,0,0,1,1.3-.6h0a1.04,1.04,0,0,1,.6,1.3h0a.961.961,0,0,1-.9.7h0C363.6,277.3,363.5,277.3,363.4,277.2Zm-274.6-3a.922.922,0,0,1-.4-1.3h0a1.012,1.012,0,0,1,1.4-.4h0a.922.922,0,0,1,.4,1.3h0a1.05,1.05,0,0,1-.9.5h0A.9.9,0,0,1,88.8,274.2Zm275.9-.7a1.146,1.146,0,0,1-.7-1.3h0a1.146,1.146,0,0,1,1.3-.7h0a1,1,0,0,1,.6,1.3h0a.993.993,0,0,1-1,.7h-.2ZM90.8,270.7a1.075,1.075,0,0,1-.2-1.4h0a.9.9,0,0,1,1.4-.2h0a1.075,1.075,0,0,1,.2,1.4h0a.91.91,0,0,1-.8.4h0A.735.735,0,0,1,90.8,270.7Zm275.1-1.1a.949.949,0,0,1-.7-1.2h0a.949.949,0,0,1,1.2-.7h0a1.086,1.086,0,0,1,.7,1.2h0a.9.9,0,0,1-1,.7h0C366.1,269.7,366,269.7,365.9,269.6Zm-272.6-2a.967.967,0,0,1,0-1.4h0a.967.967,0,0,1,1.4,0h0a.967.967,0,0,1,0,1.4h0a1.08,1.08,0,0,1-.7.3h0A.908.908,0,0,1,93.3,267.6Zm273.6-1.8a1.1,1.1,0,0,1-.8-1.2h0a.949.949,0,0,1,1.2-.7h0a.949.949,0,0,1,.7,1.2h0a.974.974,0,0,1-1,.8h0C367.1,265.8,367,265.8,366.9,265.8Zm-270.7-.9a1.058,1.058,0,0,1,.2-1.4h0a1.075,1.075,0,0,1,1.4.2h0a1.075,1.075,0,0,1-.2,1.4h0a1.421,1.421,0,0,1-.6.2h0A1.235,1.235,0,0,1,96.2,264.9Zm3.4-2.2a.883.883,0,0,1,.4-1.3h0a.883.883,0,0,1,1.3.4h0a.883.883,0,0,1-.4,1.3h0a.749.749,0,0,1-.5.1h0A.891.891,0,0,1,99.6,262.7Zm268.2-.8a1.037,1.037,0,0,1-.8-1.2h0a1.037,1.037,0,0,1,1.2-.8h0a1.037,1.037,0,0,1,.8,1.2h0a.974.974,0,0,1-1,.8h-.2Zm-264.7-1.1a.992.992,0,0,1,.5-1.3h0a.992.992,0,0,1,1.3.5h0a.992.992,0,0,1-.5,1.3h0a.6.6,0,0,1-.4.1h0A.961.961,0,0,1,103.1,260.8Zm3.7-1.6a.992.992,0,0,1,.5-1.3h0a.992.992,0,0,1,1.3.5h0a.992.992,0,0,1-.5,1.3h0c-.1,0-.3.1-.4.1h0A.875.875,0,0,1,106.8,259.2Zm3.6-1.6a.992.992,0,0,1,.5-1.3h0a.992.992,0,0,1,1.3.5h0a.992.992,0,0,1-.5,1.3h0a.6.6,0,0,1-.4.1h0A1.332,1.332,0,0,1,110.4,257.6Zm258.1.3a1.072,1.072,0,0,1-.9-1.1h0a.991.991,0,0,1,1.1-.8h0a1.072,1.072,0,0,1,.9,1.1h0a1.063,1.063,0,0,1-1,.9h0A.1.1,0,0,0,368.5,257.9ZM114,255.8a1.012,1.012,0,0,1,.4-1.4h0a1.012,1.012,0,0,1,1.4.4h0a1.012,1.012,0,0,1-.4,1.4h0a.9.9,0,0,1-.5.1h0A1.05,1.05,0,0,1,114,255.8Zm3.4-2.1a1.058,1.058,0,0,1,.2-1.4h0a1.075,1.075,0,0,1,1.4.2h0a1.075,1.075,0,0,1-.2,1.4h0a1.421,1.421,0,0,1-.6.2h0A.909.909,0,0,1,117.4,253.7Zm251.7.3a.9.9,0,0,1-.9-1.1h0a.955.955,0,0,1,1.1-.9h0a1.009,1.009,0,0,1,.9,1.1h0a.987.987,0,0,1-1,.9h-.1Zm-248.5-2.8a.972.972,0,0,1,.1-1.4h0a.972.972,0,0,1,1.4.1h0a.972.972,0,0,1-.1,1.4h0a.908.908,0,0,1-.7.3h0A.755.755,0,0,1,120.6,251.2ZM369.4,250a1.075,1.075,0,0,1-1-1h0a1.075,1.075,0,0,1,1-1h0a1,1,0,0,1,1,1h0a.945.945,0,0,1-1,1Zm-245.9-1.5a.972.972,0,0,1-.1-1.4h0a1.071,1.071,0,0,1,1.4-.1h0a1.071,1.071,0,0,1,.1,1.4h0a1.08,1.08,0,0,1-.7.3h0C123.9,248.7,123.6,248.7,123.5,248.5Zm245-3.5a1,1,0,0,1,1-1h0a1,1,0,0,1,1,1h0a1,1,0,0,1-1,1h0A.945.945,0,0,1,368.5,245Zm-242.4.5a1.075,1.075,0,0,1-.2-1.4h0a1.075,1.075,0,0,1,1.4-.2h0a1.075,1.075,0,0,1,.2,1.4h0a.909.909,0,0,1-.8.4h0A1.072,1.072,0,0,1,126.1,245.5Zm2.3-3.3a.984.984,0,0,1-.3-1.4h0a.984.984,0,0,1,1.4-.3h0a.984.984,0,0,1,.3,1.4h0a1.02,1.02,0,0,1-.8.5h0A1.421,1.421,0,0,1,128.4,242.2Zm239.8-1.1a1.088,1.088,0,0,1,.9-1.1h0a1.172,1.172,0,0,1,1.1.9h0a1.172,1.172,0,0,1-.9,1.1h-.1A1.063,1.063,0,0,1,368.2,241.1Zm-237.7-2.3a1.012,1.012,0,0,1-.4-1.4h0a1.012,1.012,0,0,1,1.4-.4h0a1.012,1.012,0,0,1,.4,1.4h0a1.05,1.05,0,0,1-.9.5h0A.75.75,0,0,1,130.5,238.8Zm237.3-1.6a.937.937,0,0,1,.8-1.1h0a.937.937,0,0,1,1.1.8h0a.937.937,0,0,1-.8,1.1h-.2A.876.876,0,0,1,367.8,237.2Zm-235.5-1.9a.992.992,0,0,1-.5-1.3h0a.992.992,0,0,1,1.3-.5h0a.992.992,0,0,1,.5,1.3h0a.961.961,0,0,1-.9.6h0C132.6,235.4,132.5,235.3,132.3,235.3Zm234.7-2a1.028,1.028,0,0,1,.7-1.2h0a1.028,1.028,0,0,1,1.2.7h0a1.028,1.028,0,0,1-.7,1.2H368A.824.824,0,0,1,367,233.3Zm-233-1.7a.917.917,0,0,1-.5-1.3h0a.917.917,0,0,1,1.3-.5h0a.917.917,0,0,1,.5,1.3h0a.875.875,0,0,1-.9.6h0C134.2,231.7,134.1,231.7,134,231.6Zm231.9-2a1.04,1.04,0,0,1,.6-1.3h0a1.04,1.04,0,0,1,1.3.6h0a1.04,1.04,0,0,1-.6,1.3h0c-.1,0-.2.1-.3.1h0A1.2,1.2,0,0,1,365.9,229.6Zm-230.5-1.7a1.04,1.04,0,0,1-.6-1.3h0a1.04,1.04,0,0,1,1.3-.6h0a1.04,1.04,0,0,1,.6,1.3h0a.961.961,0,0,1-.9.7h0A.756.756,0,0,0,135.4,227.9Zm229.2-2h0a.992.992,0,0,1,.5-1.3h0a.992.992,0,0,1,1.3.5h0a.992.992,0,0,1-.5,1.3h0c-.1,0-.3.1-.4.1h0A.875.875,0,0,1,364.6,225.9Zm-227.9-1.8a1.146,1.146,0,0,1-.7-1.3h0a1.086,1.086,0,0,1,1.2-.7h0a1.146,1.146,0,0,1,.7,1.3h0a.993.993,0,0,1-1,.7h-.2Zm226.2-1.8h0a1.012,1.012,0,0,1,.4-1.4h0a1.012,1.012,0,0,1,1.4.4h0a1.012,1.012,0,0,1-.4,1.4h0a.749.749,0,0,1-.5.1h0A.76.76,0,0,1,362.9,222.3Zm-225.1-2a.949.949,0,0,1-.7-1.2h0a.949.949,0,0,1,1.2-.7h0a.949.949,0,0,1,.7,1.2h0a.993.993,0,0,1-1,.7h-.2ZM360.9,219h0a.984.984,0,0,1,.3-1.4h0a.984.984,0,0,1,1.4.3h0a.984.984,0,0,1-.3,1.4h0a.9.9,0,0,1-.5.1h0A1.086,1.086,0,0,1,360.9,219Zm-222.1-2.6a.949.949,0,0,1-.7-1.2h0a.949.949,0,0,1,1.2-.7h0a.949.949,0,0,1,.7,1.2h0a1.077,1.077,0,0,1-1,.8h0C139,216.4,138.9,216.4,138.8,216.4Zm219.9-.6h0a.978.978,0,0,1,.2-1.4h0a.978.978,0,0,1,1.4.2h0a.978.978,0,0,1-.2,1.4h0a1.421,1.421,0,0,1-.6.2h0A1.234,1.234,0,0,1,358.7,215.8Zm-2.6-3h0a.967.967,0,0,1,0-1.4h0a.967.967,0,0,1,1.4,0h0a.967.967,0,0,1,0,1.4h0a.908.908,0,0,1-.7.3h0A1.08,1.08,0,0,1,356.1,212.8Zm-216.3-.3a1.037,1.037,0,0,1-.8-1.2h0a1.037,1.037,0,0,1,1.2-.8h0a1.037,1.037,0,0,1,.8,1.2h0a.974.974,0,0,1-1,.8h-.2Zm213.5-2.3a.972.972,0,0,1-.1-1.4h0a.966.966,0,0,1,1.4-.1h0a.972.972,0,0,1,.1,1.4h0a1.235,1.235,0,0,1-.8.4h0Zm-212.7-1.6a1.037,1.037,0,0,1-.8-1.2h0a.968.968,0,0,1,1.2-.8h0a1.037,1.037,0,0,1,.8,1.2h0a.974.974,0,0,1-1,.8h-.2Zm209.6-.8a.984.984,0,0,1-.3-1.4h0a.984.984,0,0,1,1.4-.3h0a.984.984,0,0,1,.3,1.4h0a.909.909,0,0,1-.8.4h0A.661.661,0,0,1,350.2,207.8Zm-3.3-2h0a1.012,1.012,0,0,1-.4-1.4h0a1.012,1.012,0,0,1,1.4-.4h0a1.012,1.012,0,0,1,.4,1.4h0a1.05,1.05,0,0,1-.9.5h0A.75.75,0,0,1,346.9,205.8Zm-71.5-1.7a.945.945,0,0,1,1-1h0a.945.945,0,0,1,1,1h0a1,1,0,0,1-1,1h0A1,1,0,0,1,275.4,204.1Zm-3.1.9a.865.865,0,0,1-.9-1h0a1.075,1.075,0,0,1,1-1h0a.9.9,0,0,1,.9,1.1h0a.923.923,0,0,1-1,.9Zm7.1-1a1,1,0,0,1,1-1h0a1,1,0,0,1,1,1h0a.987.987,0,0,1-.9,1h-.1A1.071,1.071,0,0,1,279.4,204Zm4-.2a1.088,1.088,0,0,1,.9-1.1h0a1.172,1.172,0,0,1,1.1.9h0a1.172,1.172,0,0,1-.9,1.1h-.1A.923.923,0,0,1,283.4,203.8Zm-15.1.8c-.5-.1-1-.6-.9-1.1h0a1.072,1.072,0,0,1,1.1-.9h0a1.072,1.072,0,0,1,.9,1.1h0a1.063,1.063,0,0,1-1,.9h0C268.3,204.7,268.3,204.7,268.3,204.6Zm-127,0a1.037,1.037,0,0,1-.8-1.2h0a1.037,1.037,0,0,1,1.2-.8h0a1.037,1.037,0,0,1,.8,1.2h0a.974.974,0,0,1-1,.8h0C141.5,204.7,141.4,204.6,141.3,204.6Zm202-.4a1.04,1.04,0,0,1-.6-1.3h0a1.04,1.04,0,0,1,1.3-.6h0a1.04,1.04,0,0,1,.6,1.3h0a.961.961,0,0,1-.9.6h0A.3.3,0,0,1,343.3,204.2Zm-56-.8a.993.993,0,0,1,.9-1.1h0a.993.993,0,0,1,1.1.9h0a.993.993,0,0,1-.9,1.1h-.1A1.063,1.063,0,0,1,287.3,203.4Zm-23.1.7a1.037,1.037,0,0,1-.8-1.2h0a1.037,1.037,0,0,1,1.2-.8h0a.967.967,0,0,1,.8,1.2h0a.974.974,0,0,1-1,.8h-.2Zm27.1-1.2a.993.993,0,0,1,.9-1.1h0a.993.993,0,0,1,1.1.9h0a.993.993,0,0,1-.9,1.1h-.1A1.063,1.063,0,0,1,291.3,202.9Zm-31,.3a.949.949,0,0,1-.7-1.2h0a.949.949,0,0,1,1.2-.7h0a.949.949,0,0,1,.7,1.2h0a1.077,1.077,0,0,1-1,.8h0A.31.31,0,0,0,260.3,203.2Zm35-.8a.9.9,0,0,1,.9-1.1h0a.9.9,0,0,1,1.1.9h0a.937.937,0,0,1-.8,1.1h-.1A1.188,1.188,0,0,1,295.3,202.4Zm44.3.5h0a1.146,1.146,0,0,1-.7-1.3h0a1.146,1.146,0,0,1,1.3-.7h0a1.146,1.146,0,0,1,.7,1.3h0a.993.993,0,0,1-1,.7h0C339.8,203,339.7,202.9,339.6,202.9Zm-40.4-1.1a.993.993,0,0,1,.9-1.1h0a.945.945,0,0,1,1.1.9h0a.993.993,0,0,1-.9,1.1h-.1A1.063,1.063,0,0,1,299.2,201.8Zm4-.6a.937.937,0,0,1,.8-1.1h0a.9.9,0,0,1,1.1.9h0a.993.993,0,0,1-.9,1.1h-.1A1.055,1.055,0,0,1,303.2,201.2Zm-46.8.8h0a1.04,1.04,0,0,1-.6-1.3h0a1,1,0,0,1,1.3-.6h0a1.04,1.04,0,0,1,.6,1.3h0a.961.961,0,0,1-.9.7h0C256.6,202.1,256.5,202.1,256.4,202Zm79.4-.1a1.037,1.037,0,0,1-.8-1.2h0a1.1,1.1,0,0,1,1.2-.8h0a1.037,1.037,0,0,1,.8,1.2h0a.974.974,0,0,1-1,.8h0C336,202,335.9,202,335.8,201.9Zm-28.6-1.2a.993.993,0,0,1,.9-1.1h0a.993.993,0,0,1,1.1.9h0a.993.993,0,0,1-.9,1.1h-.1A.987.987,0,0,1,307.2,200.7Zm24.8.6a1.072,1.072,0,0,1-.9-1.1h0a1.072,1.072,0,0,1,1.1-.9h0a1.172,1.172,0,0,1,.9,1.1h0a1.063,1.063,0,0,1-1,.9H332Zm-20.9-1.1a.993.993,0,0,1,.9-1.1h0a.945.945,0,0,1,1.1.9h0c.1.5-.4,1-.9,1.1h-.1A.977.977,0,0,1,311.1,200.2Zm16.9.6a.9.9,0,0,1-.9-1.1h0a1.009,1.009,0,0,1,1.1-.9h0a.955.955,0,0,1,.9,1.1h0a1.018,1.018,0,0,1-1.1.9Zm-12.9-.9a1.088,1.088,0,0,1,.9-1.1h0a1.088,1.088,0,0,1,1.1.9h0a1.088,1.088,0,0,1-.9,1.1h-.1A1.063,1.063,0,0,1,315.1,199.9Zm-173,.8a.968.968,0,0,1-.8-1.2h0a1.037,1.037,0,0,1,1.2-.8h0a1.037,1.037,0,0,1,.8,1.2h0a.974.974,0,0,1-1,.8h-.2Zm177-1a1,1,0,0,1,1-1h0a.945.945,0,0,1,1,1h0a1,1,0,0,1-1,1h0A1.166,1.166,0,0,1,319.1,199.7Zm5,.9a1.075,1.075,0,0,1-1-1h0a1,1,0,0,1,1-1h0a1.075,1.075,0,0,1,1,1h0a.945.945,0,0,1-1,1Zm-71.5-.1a.992.992,0,0,1-.5-1.3h0a.992.992,0,0,1,1.3-.5h0a.992.992,0,0,1,.5,1.3h0a.961.961,0,0,1-.9.6h0C252.8,200.6,252.7,200.6,252.6,200.5Zm-3.7-1.8a1.107,1.107,0,0,1-.4-1.4h0a1.107,1.107,0,0,1,1.4-.4h0a1.107,1.107,0,0,1,.4,1.4h0a1.05,1.05,0,0,1-.9.5h0A.9.9,0,0,1,248.9,198.7Zm-106.1-1.9a1.037,1.037,0,0,1-.8-1.2h0a1.037,1.037,0,0,1,1.2-.8h0a1.037,1.037,0,0,1,.8,1.2h0a.974.974,0,0,1-1,.8h-.2Zm102.7-.4a1.058,1.058,0,0,1-.2-1.4h0a1.075,1.075,0,0,1,1.4-.2h0a1.075,1.075,0,0,1,.2,1.4h0a.909.909,0,0,1-.8.4h0A1.072,1.072,0,0,1,245.5,196.4Zm-3.2-2.6a.967.967,0,0,1,0-1.4h0a.967.967,0,0,1,1.4,0h0a.967.967,0,0,1,0,1.4h0a1.08,1.08,0,0,1-.7.3h0C242.7,194,242.5,194,242.3,193.8Zm-98.7-.9a1.1,1.1,0,0,1-.8-1.2h0a1.037,1.037,0,0,1,1.2-.8h0a1.037,1.037,0,0,1,.8,1.2h0a.974.974,0,0,1-1,.8h-.2Zm95.9-2.1a1.063,1.063,0,0,1,.1-1.4h0a.966.966,0,0,1,1.4.1h0a.966.966,0,0,1-.1,1.4h0a1.421,1.421,0,0,1-.6.2h0A1.136,1.136,0,0,1,239.5,190.8Zm-95-1.9a1.1,1.1,0,0,1-.8-1.2h0a1.1,1.1,0,0,1,1.2-.8h0a1.1,1.1,0,0,1,.8,1.2h0a.974.974,0,0,1-1,.8h0C144.6,189,144.5,189,144.5,188.9Zm92.6-1.4h0a.984.984,0,0,1,.3-1.4h0a.984.984,0,0,1,1.4.3h0a.984.984,0,0,1-.3,1.4h0a1.689,1.689,0,0,1-.5.2h0C237.6,187.9,237.2,187.8,237.1,187.5Zm-91.7-2.4a.949.949,0,0,1-.7-1.2h0a.949.949,0,0,1,1.2-.7h0a1.028,1.028,0,0,1,.7,1.2h0a.9.9,0,0,1-1,.7h-.2Zm89.5-1.1a1.012,1.012,0,0,1,.4-1.4h0a1.012,1.012,0,0,1,1.4.4h0a1.012,1.012,0,0,1-.4,1.4h0a.749.749,0,0,1-.5.1h0A1.193,1.193,0,0,1,234.9,184Zm-88.4-2.8a1.146,1.146,0,0,1-.7-1.3h0a1.146,1.146,0,0,1,1.3-.7h0a1.146,1.146,0,0,1,.7,1.3h0a.993.993,0,0,1-1,.7h-.3Zm86.6-.8a1.053,1.053,0,0,1,.4-1.3h0a.992.992,0,0,1,1.3.5h0a.917.917,0,0,1-.5,1.3h0a.6.6,0,0,1-.4.1h0C233.6,180.9,233.2,180.7,233.1,180.4Zm-85.5-3a1.04,1.04,0,0,1-.6-1.3h0a1.04,1.04,0,0,1,1.3-.6h0a1,1,0,0,1,.6,1.3h0a.961.961,0,0,1-.9.7h0C147.9,177.4,147.8,177.4,147.6,177.4Zm83.7-.7a.992.992,0,0,1,.5-1.3h0a.992.992,0,0,1,1.3.5h0a.992.992,0,0,1-.5,1.3h0a.6.6,0,0,1-.4.1h0A1.069,1.069,0,0,1,231.3,176.7Zm-1.6-3.6a.992.992,0,0,1,.5-1.3h0a.992.992,0,0,1,1.3.5h0a.992.992,0,0,1-.5,1.3h0a.6.6,0,0,1-.4.1h0A.961.961,0,0,1,229.7,173.1Zm-80.7.5a1.04,1.04,0,0,1-.6-1.3h0a1.04,1.04,0,0,1,1.3-.6h0a1.04,1.04,0,0,1,.6,1.3h0a.961.961,0,0,1-.9.6h0C149.2,173.7,149.1,173.7,149,173.6Zm79-4.1h0a.992.992,0,0,1,.5-1.3h0a.992.992,0,0,1,1.3.5h0a.992.992,0,0,1-.5,1.3h0a.6.6,0,0,1-.4.1h0A1.149,1.149,0,0,1,228,169.5Zm-77.5.4a.992.992,0,0,1-.5-1.3h0a.992.992,0,0,1,1.3-.5h0a.992.992,0,0,1,.5,1.3h0a.961.961,0,0,1-.9.6h0A.756.756,0,0,1,150.5,169.9Zm75.7-4a1.012,1.012,0,0,1,.4-1.4h0a1.012,1.012,0,0,1,1.4.4h0a1.012,1.012,0,0,1-.4,1.4h0a.749.749,0,0,1-.5.1h0A.811.811,0,0,1,226.2,165.9Zm-73.9.4a1.012,1.012,0,0,1-.4-1.4h0a1.012,1.012,0,0,1,1.4-.4h0a1.012,1.012,0,0,1,.4,1.4h0a1.05,1.05,0,0,1-.9.5h0A.749.749,0,0,1,152.3,166.3Zm72-3.8h0a1.076,1.076,0,0,1,.3-1.4h0a1.076,1.076,0,0,1,1.4.3h0a1.076,1.076,0,0,1-.3,1.4h0a1.087,1.087,0,0,1-.5.1h0A.807.807,0,0,1,224.3,162.5Zm-70,.3a.984.984,0,0,1-.3-1.4h0a.984.984,0,0,1,1.4-.3h0a.984.984,0,0,1,.3,1.4h0a1.02,1.02,0,0,1-.8.5h0C154.6,163,154.4,163,154.3,162.8Zm2.2-3.3a1.075,1.075,0,0,1-.2-1.4h0a1.075,1.075,0,0,1,1.4-.2h0a1.075,1.075,0,0,1,.2,1.4h0a.909.909,0,0,1-.8.4h0A.735.735,0,0,1,156.5,159.5Zm65.6-.2a.978.978,0,0,1,.2-1.4h0a.978.978,0,0,1,1.4.2h0a.978.978,0,0,1-.2,1.4h0a1.421,1.421,0,0,1-.6.2h0A.909.909,0,0,1,222.1,159.3ZM159,156.4a.967.967,0,0,1,0-1.4h0a.967.967,0,0,1,1.4,0h0a1.071,1.071,0,0,1,.1,1.4h0a1.08,1.08,0,0,1-.7.3h0A1.135,1.135,0,0,1,159,156.4Zm60.6-.1a.967.967,0,0,1,0-1.4h0a.967.967,0,0,1,1.4,0h0a.967.967,0,0,1,0,1.4h0a.908.908,0,0,1-.7.3h0C220,156.7,219.8,156.5,219.6,156.3Zm-57.8-2.7a.966.966,0,0,1,.1-1.4h0a.972.972,0,0,1,1.4.1h0a.966.966,0,0,1-.1,1.4h0a.908.908,0,0,1-.7.3h0A2.507,2.507,0,0,1,161.8,153.6Zm55,0h0a1.071,1.071,0,0,1-.1-1.4h0a.972.972,0,0,1,1.4-.1h0a.972.972,0,0,1,.1,1.4h0a1.136,1.136,0,0,1-.8.3h0C217.2,153.9,217,153.8,216.8,153.6ZM164.9,151a1.075,1.075,0,0,1,.2-1.4h0a1.058,1.058,0,0,1,1.4.2h0a1.075,1.075,0,0,1-.2,1.4h0a1.421,1.421,0,0,1-.6.2h0A1.235,1.235,0,0,1,164.9,151Zm48.8.2a.978.978,0,0,1-.2-1.4h0a1.075,1.075,0,0,1,1.4-.2h0a1.075,1.075,0,0,1,.2,1.4h0a.909.909,0,0,1-.8.4h0A1.421,1.421,0,0,1,213.7,151.2Zm-45.5-2.5a1.012,1.012,0,0,1,.4-1.4h0a1.076,1.076,0,0,1,1.4.3h0a1.012,1.012,0,0,1-.4,1.4h0a.9.9,0,0,1-.5.1h0A.807.807,0,0,1,168.2,148.7Zm42.3.3a1.107,1.107,0,0,1-.4-1.4h0a.984.984,0,0,1,1.4-.3h0a.984.984,0,0,1,.3,1.4h0a1.05,1.05,0,0,1-.9.5h0A.758.758,0,0,1,210.5,149Zm-38.8-2.2a.992.992,0,0,1,.5-1.3h0a.992.992,0,0,1,1.3.5h0a.992.992,0,0,1-.5,1.3h0a.6.6,0,0,1-.4.1h0C172.2,147.3,171.8,147.1,171.7,146.8Zm35.3.4h0a.992.992,0,0,1-.5-1.3h0a.992.992,0,0,1,1.3-.5h0a.992.992,0,0,1,.5,1.3h0a.961.961,0,0,1-.9.6h0A.6.6,0,0,1,207,147.2Zm-31.7-2a1.04,1.04,0,0,1,.6-1.3h0a1.04,1.04,0,0,1,1.3.6h0a1.04,1.04,0,0,1-.6,1.3h0c-.1,0-.2.1-.3.1h0A1.445,1.445,0,0,1,175.3,145.2Zm28.1.5a1.04,1.04,0,0,1-.6-1.3h0a1.04,1.04,0,0,1,1.3-.6h0a1.04,1.04,0,0,1,.6,1.3h0a.961.961,0,0,1-.9.7h0C203.6,145.8,203.5,145.8,203.4,145.7Zm-24.3-1.8a1.028,1.028,0,0,1,.7-1.2h0a1.028,1.028,0,0,1,1.2.7h0a1.028,1.028,0,0,1-.7,1.2h-.2A.871.871,0,0,1,179.1,143.9Zm20.6.7a.949.949,0,0,1-.7-1.2h0a.949.949,0,0,1,1.2-.7h0a.949.949,0,0,1,.7,1.2h0a.974.974,0,0,1-1,.8h0A.31.31,0,0,0,199.7,144.6ZM183,143a.937.937,0,0,1,.8-1.1h0a.991.991,0,0,1,1.1.8h0a.89.89,0,0,1-.8,1.1H184A.9.9,0,0,1,183,143Zm12.8.8a.919.919,0,0,1-.8-1.1h0a.991.991,0,0,1,1.1-.8h0a.991.991,0,0,1,.8,1.1h0a1.063,1.063,0,0,1-1,.9h0C195.9,143.8,195.9,143.8,195.8,143.8Zm-8.8-1.3a1.088,1.088,0,0,1,.9-1.1h0a.987.987,0,0,1,1,.9h0a1.088,1.088,0,0,1-.9,1.1h0A.865.865,0,0,1,187,142.5Zm5,.9a1,1,0,0,1-1-1h0a1.075,1.075,0,0,1,1-1h0a.919.919,0,0,1,.9,1h0a.871.871,0,0,1-.9,1Z" fill="#f5b1f5"/>
        </g>
        <g id="Group_43" data-name="Group 43">
          <path id="Path_256" data-name="Path 256" d="M317.5,336.2a.6.6,0,0,1-.4-.1c-.1-.1-.2-.1-.3-.2a.967.967,0,0,1,0-1.4.967.967,0,0,1,1.4,0,1,1,0,0,1-.7,1.7Z" fill="#f5b1f5"/>
        </g>
      </g>
      <g id="Group_45" data-name="Group 45" opacity="0.5">
        <circle id="Ellipse_65" data-name="Ellipse 65" cx="3.8" cy="3.8" r="3.8" transform="translate(139.2 146.6)" fill="#b435ff"/>
        <path id="Path_257" data-name="Path 257" d="M121.9,196.8a2.9,2.9,0,1,1-2.9-2.9A2.9,2.9,0,0,1,121.9,196.8Z" fill="#b435ff"/>
        <path id="Path_258" data-name="Path 258" d="M153,226.9a2,2,0,1,1-2-2A2.006,2.006,0,0,1,153,226.9Z" fill="#b435ff"/>
        <circle id="Ellipse_66" data-name="Ellipse 66" cx="4" cy="4" r="4" transform="translate(257.5 169.1)" fill="#b435ff"/>
        <path id="Path_259" data-name="Path 259" d="M379.6,179.9a2.8,2.8,0,0,1-2.8,2.8,2.734,2.734,0,0,1-2.8-2.8,2.8,2.8,0,1,1,5.6,0Z" fill="#b435ff"/>
        <circle id="Ellipse_67" data-name="Ellipse 67" cx="2.3" cy="2.3" r="2.3" transform="translate(270.1 272.4)" fill="#b435ff"/>
        <circle id="Ellipse_68" data-name="Ellipse 68" cx="3.1" cy="3.1" r="3.1" transform="translate(343 250)" fill="#b435ff"/>
        <path id="Path_260" data-name="Path 260" d="M386.6,245.6h0a7.79,7.79,0,0,0,5,5h0a7.79,7.79,0,0,0-5,5h0a7.79,7.79,0,0,0-5-5h0a7.79,7.79,0,0,0,5-5Z" fill="#b435ff"/>
        <path id="Path_261" data-name="Path 261" d="M86.6,284.7h0a7.79,7.79,0,0,0,5,5h0a7.79,7.79,0,0,0-5,5h0a7.79,7.79,0,0,0-5-5h0a7.58,7.58,0,0,0,5-5Z" fill="#b435ff"/>
        <path id="Path_262" data-name="Path 262" d="M215,121.4h0a7.79,7.79,0,0,0,5,5h0a7.79,7.79,0,0,0-5,5h0a7.79,7.79,0,0,0-5-5h0a8.014,8.014,0,0,0,5-5Z" fill="#b435ff"/>
        <path id="Path_263" data-name="Path 263" d="M101.2,145.4h0a7.79,7.79,0,0,0,5,5h0a7.79,7.79,0,0,0-5,5h0a7.79,7.79,0,0,0-5-5h0a7.58,7.58,0,0,0,5-5Z" fill="#b435ff"/>
      </g>
      <g id="Group_47" data-name="Group 47">
        <path id="Path_264" data-name="Path 264" d="M185.7,334.9c-1.8-15-3.5-29.9-5.3-44.9-.5-4.6-1.3-9.6-4.7-12.8-5.3-4.8-13.8-2.6-20.7-4.6-6.8-2-11.7-8.1-14.8-14.5s-4.9-13.4-8.4-19.6a44.129,44.129,0,0,0-40.4-22.3c-4.8,4.7-3.7,16-1.8,22.5s6,12,9.8,17.6c3.8,5.5,7.5,11.4,8.5,18.1,1.4,9.4-2.7,19.8,1.6,28.3,6.5,12.8,26.7,11.8,34.9,23.5,4,5.7,4.5,13.5,9.6,18.2,4.8,4.4,12.5,4.4,18.5,1.8S181.2,339.7,185.7,334.9Z" fill="#ffa13f"/>
        <path id="Path_265" data-name="Path 265" d="M172.7,346.1a24.273,24.273,0,0,0,8.1-5.9A110.78,110.78,0,0,0,108,297.9a15.747,15.747,0,0,0,1.6,4.6c6.5,12.8,26.7,11.8,34.9,23.5,4,5.7,4.5,13.5,9.6,18.2C159,348.8,166.7,348.8,172.7,346.1Z" opacity="0.1"/>
        <g id="Group_46" data-name="Group 46">
          <path id="Path_266" data-name="Path 266" d="M194.1,362.2A111.431,111.431,0,0,0,79.7,314.5c9.1,22,25.8,42.6,47.2,53S173.5,374.1,194.1,362.2Z" fill="url(#linear-gradient)"/>
          <path id="Path_267" data-name="Path 267" d="M180.4,353.8c-10.7-3.3-21.5-6.8-32.2-10.3l-14-19.8a1.512,1.512,0,0,0-2.5,1.7l11.6,16.5c-7.9-2.6-15.8-5.3-23.6-8-.1-.2-.1-.4-.3-.6l-11.1-14a1.382,1.382,0,0,0-2.1-.2,1.458,1.458,0,0,0-.2,2.1l8.7,10.9c-5.3-1.8-10.6-3.7-15.8-5.6a1.487,1.487,0,1,0-1,2.8c9.1,3.3,18.4,6.5,27.6,9.6l-21.1,3.5a1.411,1.411,0,0,0-1.2,1.7,1.6,1.6,0,0,0,1.5,1.3h.2l25.8-4.3a1.421,1.421,0,0,0,.6-.2c5,1.7,10.1,3.4,15.1,5a1.606,1.606,0,0,0,1.1.5h.2c1.6.5,3.2,1,4.8,1.6a188.471,188.471,0,0,1-28.5,7.1,1.411,1.411,0,0,0-1.2,1.7,1.508,1.508,0,0,0,1.5,1.2h.3a205.232,205.232,0,0,0,32.8-8.5c7.4,2.4,14.9,4.8,22.3,7.1.1,0,.3.1.4.1a1.472,1.472,0,0,0,1.4-1.1A1.635,1.635,0,0,0,180.4,353.8Z" opacity="0.2"/>
        </g>
      </g>
      <g id="Group_51" data-name="Group 51">
        <g id="Group_49" data-name="Group 49" clip-path="url(#clip-path)">
          <path id="Path_268" data-name="Path 268" d="M231.9,276c10.2,2.9,17.8,11.6,23.5,20.6s10.2,18.9,17.3,26.8c7.1,7.8,16.6,13.3,26.6,16.8s20.6,5,31.2,5.7a17.8,17.8,0,0,1,6.7,14.6c-28.8,8.5-60.8,5.5-86.2-10.7-5.5-3.5-10.2-7.9-13.2-13.7s-4.3-12.3-5.5-18.7C229.7,303.9,227.6,289.2,231.9,276Z" fill="#350564"/>
          <path id="Path_269" data-name="Path 269" d="M177.3,309.2c-13.3-4-23.1-16.6-25.1-30.3s3.3-28,12.7-38.2c3.2-3.5,7.1-6.7,8.8-11.2,2-4.9,1-10.4.9-15.7a34.141,34.141,0,0,1,2.4-14.9c2.1-4.6,5.9-8.6,10.8-10.1,9.6-3,19.4,4.1,29.4,4.6,3.5.2,7-.5,10.4-.7,3.5-.2,7.2.1,10.1,2s4.9,5.7,3.7,9c5,.5,8.3,6.9,9,11.9s-.8,10.1-2.2,14.9c-1.3,4.9-2.5,10.1-1,15,1.1,3.7,3.6,6.9,4.8,10.6,2.5,7.3-.3,15.5-5.1,21.5-4.9,6-11.6,10.1-18.1,14.1-10-4.4-22.8-2.1-29.7,6.3-3.1,3.8-5.1,8.6-8.7,12C186.9,313.6,182.1,310.7,177.3,309.2Z" fill="#8c00cd"/>
          <path id="Path_270" data-name="Path 270" d="M182.7,290.1a15.4,15.4,0,0,1,.7-24c4.9-3.6,12-4.5,15.2-9.8a87.968,87.968,0,0,1,27.8-28.8,13.4,13.4,0,0,1,5-2.3,5.477,5.477,0,0,1,5.1,1.3,8.065,8.065,0,0,1,1.7,3.9c1.3,5.4,2.6,10.9,3.9,16.3,1.5,6.3,3,13,1.3,19.3-2.2,8.1-9.2,13.9-16.2,18.6-5.3-2.1-9.7.2-14.7,3s-9.6,6.5-15.2,8.1C191.8,297.6,187.1,293.8,182.7,290.1Z" opacity="0.2"/>
          <path id="Path_271" data-name="Path 271" d="M251.5,389.7a123.62,123.62,0,0,0-.1-91.3c-3.4-8.3-7.9-16.6-15.5-21.4s-17.1-5.4-26.1-5.6c-8.2-.2-16.9-.3-24.2,3.5-7.1,3.7-11.9,10.5-15.8,17.5a138.214,138.214,0,0,0-17.1,51.9c-1.8,15.2-3.5,32.1,4.2,45.3,6.2,10.7,17.8,17.5,30,19.5s24.7-.3,36.2-4.8A141.272,141.272,0,0,0,251.5,389.7Z" fill="#3e027a"/>
          <path id="Path_272" data-name="Path 272" d="M212.7,291.8a8.974,8.974,0,0,0-5.2,1.7,19.256,19.256,0,0,1-4.9,2.6c-1.8.5-4,.2-5.1-1.3a17.471,17.471,0,0,0-2.7,4,12.239,12.239,0,0,0-6.3-1.5A225.8,225.8,0,0,0,153,341.5c-.1,1-.3,2-.4,2.9-1.3,10.6-2.5,22.1-.4,32.6a12.408,12.408,0,0,0,4.1.8c7,.1,13.4-3.8,18.5-8.5,8.5-7.9,14.4-18.4,18.3-29.4,3.5-9.8,5.7-19.7,7.7-29.9,2.8-4.3,7.4-7.7,11.9-10.3,1.7-1,3.7-2.3,3.7-4.3C216.5,293.4,214.6,291.9,212.7,291.8Z" opacity="0.2"/>
          <path id="Path_273" data-name="Path 273" d="M201.7,252.7c-.5,8.9-1.1,17.8-1.6,26.7,6.5,2.9,14.5,4.2,21.4,2.7,0-8.3-.4-17.7-.4-26C216.4,252.1,207.6,250.9,201.7,252.7Z" fill="#ffd4b0"/>
          <path id="Path_274" data-name="Path 274" d="M221.5,277.4c-.1-7-.3-14.5-.4-21.3-4.7-4.1-13.5-5.2-19.4-3.4-.3,4.8-.6,9.6-.8,14.3A58.938,58.938,0,0,0,221.5,277.4Z" opacity="0.1"/>
          <path id="Path_275" data-name="Path 275" d="M238.5,221.8a79.28,79.28,0,0,1-9.4,44.5c-10.3,3.3-22.2,1.3-30.4-5.7a31.273,31.273,0,0,1-10.2-29.2,29.408,29.408,0,0,1,21.2-22.2C220.3,206.6,232.2,213.1,238.5,221.8Z" fill="#ffd4b0"/>
          <path id="Path_276" data-name="Path 276" d="M235.3,248.1c-1.6-1.4-3.3-2.4-4.9-3.8a4.887,4.887,0,0,0-1.8,1.4,12.24,12.24,0,0,0,1.6,6.8,11.253,11.253,0,0,0,3.6,3.6c.9-2.4,1.6-4.8,2.3-7.2Z" opacity="0.1"/>
          <path id="Path_277" data-name="Path 277" d="M243.9,230.8a18.256,18.256,0,0,1-13.6-4.6c1.5,4-3.1,8.1-6.8,10.2-3.8,2.1-8.2,2.9-11.8,5.2-3.9,2.5-6.5,6.4-9.1,10.2s-5.5,7.6-9.6,9.7-9.8,1.7-12.5-1.9c-.8-8.9-2.8-18.1-1.3-26.9s5.3-17.6,11.9-23.6a32.029,32.029,0,0,1,32.8-6.2C234.8,206.9,242.9,219.1,243.9,230.8Z" fill="#8c00cd"/>
          <path id="Path_278" data-name="Path 278" d="M238.6,247.6c1.1.2,2.4.5,2.8,1.6a2.236,2.236,0,0,1-.9,2.4,5.672,5.672,0,0,1-2.6.8c-5.7.8-6.2-1.4-9.4-4.6-.8-.8-.5-2.4.1-3.3C230,242.2,235.7,247.2,238.6,247.6Z" fill="#ffd4b0"/>
          <ellipse id="Ellipse_69" data-name="Ellipse 69" cx="1.5" cy="3.1" rx="1.5" ry="3.1" transform="translate(220 238.2)" fill="#7a6654"/>
          <ellipse id="Ellipse_70" data-name="Ellipse 70" cx="1.5" cy="3.1" rx="1.5" ry="3.1" transform="translate(233.6 238.2)" fill="#7a6654"/>
          <path id="Path_279" data-name="Path 279" d="M226,248.8c0,1.7-2.8,3-6.3,3s-6.3-1.4-6.3-3,2.8-3,6.3-3S226,247.2,226,248.8Z" fill="#ffb698"/>
          <path id="Path_280" data-name="Path 280" d="M191.8,272.7A114.758,114.758,0,0,0,144.5,317c-5.5,9.5-10,21.3-11.4,32.2-.5,4.1-.7,8.5,1.4,12,2.5,4.2,7.9,6.1,12.8,5.9,8.2-.4,15.3-5.8,21.1-11.6C189,334.4,198,301.6,191.8,272.7Z" fill="#3e027a"/>
          <path id="Path_281" data-name="Path 281" d="M180.9,311.1a9.721,9.721,0,0,0,1.8-8.4,9.984,9.984,0,0,0-5.7-6.5c-1.3-.5-3-1-3.4-2.4s1.1-2.7,2.6-2.8a7.646,7.646,0,0,1,4.1,1.3c1.3.6,2.8,1.3,4.2.9,2.8-.6,3.9-4.5,6.7-5.3,1.9-.5,3.8.5,5.2,2,1.3,1.4,2.2,3.2,3.5,4.7s3.1,2.7,5,2.3a8.274,8.274,0,0,0,3.2-1.7,6.93,6.93,0,0,1,3.2-1.6,2.458,2.458,0,0,1,2.7,1.9c.1,1.6-1.8,2.4-3.2,3-4.8,2-8.5,5.9-11.8,9.9s-6.3,8.3-10.3,11.6C184.8,318.7,182,314.9,180.9,311.1Z" fill="#ffd4b0"/>
          <path id="Path_282" data-name="Path 282" d="M133.5,356.5a186.338,186.338,0,0,1,47.3-46.4,11.782,11.782,0,0,1,9.7,8.7c-3.2,8.8-6.5,17.4-11.2,25.7-4.7,8.2-10.8,15.9-18.9,21.2-4.8,3.2-10.7,5.5-16.4,4.6S130.2,361.1,133.5,356.5Z" fill="#3e027a"/>
          <path id="Path_283" data-name="Path 283" d="M215.7,212.9a27.058,27.058,0,0,0-21.8,22.6,16.063,16.063,0,0,1-6.5-1.3c1.2-6.2,4.3-12.7,9.4-16.3S209.4,211.9,215.7,212.9Z" fill="#ffaa31"/>
          <ellipse id="Ellipse_71" data-name="Ellipse 71" cx="10.5" cy="14.8" rx="10.5" ry="14.8" transform="translate(179.8 228.5)" fill="#ffaa31"/>
          <g id="Group_48" data-name="Group 48">
            <path id="Path_284" data-name="Path 284" d="M211.8,264.3a25.5,25.5,0,0,1-10.3-4,26.546,26.546,0,0,1-11.5-20l1-.1a24.851,24.851,0,0,0,33,22l.3.9A23.108,23.108,0,0,1,211.8,264.3Z" fill="#ffaa31"/>
          </g>
          <circle id="Ellipse_72" data-name="Ellipse 72" cx="2" cy="2" r="2" transform="translate(222 260.3)" fill="#ffaa31"/>
        </g>
        <g id="Group_50" data-name="Group 50" transform="translate(65.1 375.4)" clip-path="url(#clip-path-2)">
          <rect id="Rectangle_61" data-name="Rectangle 61" width="304.1" height="14.3" fill="#ffc170"/>
        </g>
      </g>
      <g id="Group_52" data-name="Group 52">
        <path id="Path_287" data-name="Path 287" d="M274.8,366.8H384.6l19.5-68c1.9-6.5-1.9-11.7-8.4-11.7H309.4c-6.5,0-13.3,5.3-15.1,11.7Z" fill="#c7c7c7"/>
        <path id="Path_288" data-name="Path 288" d="M236.6,366.8H385v1.5a7.127,7.127,0,0,1-7.1,7.1H243.7a7.127,7.127,0,0,1-7.1-7.1v-1.5Z" fill="#c7c7c7"/>
        <path id="Path_289" data-name="Path 289" d="M236.6,366.8H385v1.5a7.127,7.127,0,0,1-7.1,7.1H243.7a7.127,7.127,0,0,1-7.1-7.1v-1.5Z" opacity="0.1"/>
        <path id="Path_290" data-name="Path 290" d="M332.2,326.9c-1.2,4.2,1.2,7.5,5.4,7.5s8.5-3.4,9.7-7.5c1.2-4.2-1.2-7.5-5.4-7.5A10.682,10.682,0,0,0,332.2,326.9Z" opacity="0.1"/>
      </g>
      <path id="Path_291" data-name="Path 291" d="M313.1,172.4c-21.7,0-39.2,14-39.2,31.3a27.215,27.215,0,0,0,7.8,18.7L273.9,235l19.5-4.3a46.627,46.627,0,0,0,19.7,4.2c21.7,0,39.2-14,39.2-31.3C352.4,186.4,334.8,172.4,313.1,172.4Z" fill="#ffa6f5"/>
    </g>
  </g>
</svg>
